<mxfile host="app.diagrams.net" modified="2022-05-28T09:36:56.090Z" agent="5.0 (Windows NT 10.0; Win64; x64) AppleWebKit/537.36 (KHTML, like Gecko) Chrome/101.0.4951.64 Safari/537.36 Edg/101.0.1210.53" etag="3IiViJxD3i_-77CwckEH" version="18.1.1" type="github">
  <diagram id="DA2Qiv1e6fWK6ssefBED" name="Page-1">
    <mxGraphModel dx="1751" dy="1705" grid="1" gridSize="10" guides="1" tooltips="1" connect="1" arrows="1" fold="1" page="1" pageScale="1" pageWidth="827" pageHeight="1169" math="0" shadow="0">
      <root>
        <mxCell id="0" />
        <mxCell id="1" parent="0" />
        <mxCell id="x9HyxU4pL3DoHxPURY9i-18" style="edgeStyle=orthogonalEdgeStyle;rounded=0;orthogonalLoop=1;jettySize=auto;html=1;fontSize=15;endArrow=none;endFill=0;" edge="1" parent="1" source="x9HyxU4pL3DoHxPURY9i-2" target="x9HyxU4pL3DoHxPURY9i-7">
          <mxGeometry relative="1" as="geometry">
            <Array as="points">
              <mxPoint x="116" y="120" />
              <mxPoint x="218" y="120" />
              <mxPoint x="218" y="23" />
            </Array>
          </mxGeometry>
        </mxCell>
        <mxCell id="x9HyxU4pL3DoHxPURY9i-2" value="" style="verticalLabelPosition=bottom;sketch=0;aspect=fixed;html=1;verticalAlign=top;strokeColor=none;align=center;outlineConnect=0;shape=mxgraph.citrix.laptop_1;" vertex="1" parent="1">
          <mxGeometry x="70" y="14" width="91" height="77" as="geometry" />
        </mxCell>
        <mxCell id="x9HyxU4pL3DoHxPURY9i-19" style="edgeStyle=orthogonalEdgeStyle;rounded=0;orthogonalLoop=1;jettySize=auto;html=1;fontSize=15;endArrow=none;endFill=0;" edge="1" parent="1" source="x9HyxU4pL3DoHxPURY9i-3" target="x9HyxU4pL3DoHxPURY9i-7">
          <mxGeometry relative="1" as="geometry">
            <Array as="points">
              <mxPoint x="35" y="120" />
              <mxPoint x="220" y="120" />
              <mxPoint x="220" y="23" />
            </Array>
          </mxGeometry>
        </mxCell>
        <mxCell id="x9HyxU4pL3DoHxPURY9i-3" value="" style="verticalLabelPosition=bottom;sketch=0;aspect=fixed;html=1;verticalAlign=top;strokeColor=none;align=center;outlineConnect=0;shape=mxgraph.citrix.pda;" vertex="1" parent="1">
          <mxGeometry x="20" y="30" width="30" height="61" as="geometry" />
        </mxCell>
        <mxCell id="x9HyxU4pL3DoHxPURY9i-5" value="&lt;b&gt;&lt;font style=&quot;font-size: 13px;&quot;&gt;Пользователи системы (субъекты ПДн)&lt;/font&gt;&lt;/b&gt;" style="fontStyle=0;verticalAlign=top;align=center;spacingTop=-2;fillColor=none;rounded=0;whiteSpace=wrap;html=1;strokeColor=#FF0000;strokeWidth=2;dashed=1;container=1;collapsible=0;expand=0;recursiveResize=0;" vertex="1" parent="1">
          <mxGeometry y="-30" width="180" height="130" as="geometry" />
        </mxCell>
        <mxCell id="x9HyxU4pL3DoHxPURY9i-8" value="" style="sketch=0;pointerEvents=1;shadow=0;dashed=0;html=1;strokeColor=none;fillColor=#505050;labelPosition=center;verticalLabelPosition=bottom;verticalAlign=top;outlineConnect=0;align=center;shape=mxgraph.office.users.users;opacity=80;" vertex="1" parent="x9HyxU4pL3DoHxPURY9i-5">
          <mxGeometry x="60" y="40" width="46" height="50" as="geometry" />
        </mxCell>
        <mxCell id="x9HyxU4pL3DoHxPURY9i-27" style="edgeStyle=orthogonalEdgeStyle;rounded=0;orthogonalLoop=1;jettySize=auto;html=1;fontSize=13;endArrow=none;endFill=0;" edge="1" parent="1" source="x9HyxU4pL3DoHxPURY9i-11" target="x9HyxU4pL3DoHxPURY9i-25">
          <mxGeometry relative="1" as="geometry" />
        </mxCell>
        <mxCell id="x9HyxU4pL3DoHxPURY9i-11" value="" style="points=[];aspect=fixed;html=1;align=center;shadow=0;dashed=0;image;image=img/lib/allied_telesis/security/Router_VPN.svg;opacity=80;" vertex="1" parent="1">
          <mxGeometry x="475.73" y="100" width="84.54" height="60" as="geometry" />
        </mxCell>
        <mxCell id="x9HyxU4pL3DoHxPURY9i-16" value="" style="group" vertex="1" connectable="0" parent="1">
          <mxGeometry x="274" y="-10" width="140" height="65.5" as="geometry" />
        </mxCell>
        <mxCell id="x9HyxU4pL3DoHxPURY9i-7" value="" style="sketch=0;pointerEvents=1;shadow=0;dashed=0;html=1;strokeColor=none;fillColor=#505050;labelPosition=center;verticalLabelPosition=bottom;outlineConnect=0;verticalAlign=top;align=center;shape=mxgraph.office.clouds.cloud;opacity=80;" vertex="1" parent="x9HyxU4pL3DoHxPURY9i-16">
          <mxGeometry width="140" height="65.5" as="geometry" />
        </mxCell>
        <mxCell id="x9HyxU4pL3DoHxPURY9i-14" value="&lt;font size=&quot;1&quot; style=&quot;&quot;&gt;&lt;b style=&quot;font-size: 15px;&quot;&gt;Интернет&lt;/b&gt;&lt;/font&gt;" style="text;html=1;resizable=0;autosize=1;align=center;verticalAlign=middle;points=[];fillColor=none;strokeColor=none;rounded=0;opacity=80;" vertex="1" parent="x9HyxU4pL3DoHxPURY9i-16">
          <mxGeometry x="30" y="31" width="80" height="20" as="geometry" />
        </mxCell>
        <mxCell id="x9HyxU4pL3DoHxPURY9i-22" style="edgeStyle=orthogonalEdgeStyle;rounded=0;orthogonalLoop=1;jettySize=auto;html=1;fontSize=15;endArrow=none;endFill=0;" edge="1" parent="1" source="x9HyxU4pL3DoHxPURY9i-21" target="x9HyxU4pL3DoHxPURY9i-11">
          <mxGeometry relative="1" as="geometry" />
        </mxCell>
        <mxCell id="x9HyxU4pL3DoHxPURY9i-21" value="" style="sketch=0;shadow=0;dashed=0;html=1;strokeColor=none;fillColor=#505050;labelPosition=center;verticalLabelPosition=bottom;verticalAlign=top;outlineConnect=0;align=center;shape=mxgraph.office.databases.database_mini_1;fontSize=15;opacity=80;" vertex="1" parent="1">
          <mxGeometry x="490" width="56" height="46" as="geometry" />
        </mxCell>
        <mxCell id="x9HyxU4pL3DoHxPURY9i-23" style="edgeStyle=orthogonalEdgeStyle;rounded=0;orthogonalLoop=1;jettySize=auto;html=1;fontSize=15;endArrow=none;endFill=0;" edge="1" parent="1" source="x9HyxU4pL3DoHxPURY9i-7">
          <mxGeometry relative="1" as="geometry">
            <mxPoint x="490" y="23" as="targetPoint" />
          </mxGeometry>
        </mxCell>
        <mxCell id="x9HyxU4pL3DoHxPURY9i-24" value="&lt;font style=&quot;font-size: 13px;&quot;&gt;Средство обнаружения &lt;br&gt;вторжения&lt;/font&gt;" style="text;html=1;resizable=0;autosize=1;align=center;verticalAlign=middle;points=[];fillColor=none;strokeColor=none;rounded=0;fontSize=15;opacity=80;" vertex="1" parent="1">
          <mxGeometry x="520" y="70" width="160" height="40" as="geometry" />
        </mxCell>
        <mxCell id="x9HyxU4pL3DoHxPURY9i-28" value="" style="group" vertex="1" connectable="0" parent="1">
          <mxGeometry x="475.73" y="190" width="84.53999999999996" height="60" as="geometry" />
        </mxCell>
        <mxCell id="x9HyxU4pL3DoHxPURY9i-25" value="" style="points=[];aspect=fixed;html=1;align=center;shadow=0;dashed=0;image;image=img/lib/allied_telesis/security/Router_VPN.svg;opacity=80;" vertex="1" parent="x9HyxU4pL3DoHxPURY9i-28">
          <mxGeometry width="84.54" height="60" as="geometry" />
        </mxCell>
        <mxCell id="x9HyxU4pL3DoHxPURY9i-20" value="" style="aspect=fixed;html=1;points=[];align=center;image;fontSize=12;image=img/lib/azure2/networking/Azure_Firewall_Manager.svg;opacity=80;" vertex="1" parent="x9HyxU4pL3DoHxPURY9i-28">
          <mxGeometry x="24.769999999999982" y="15" width="35" height="30" as="geometry" />
        </mxCell>
        <mxCell id="x9HyxU4pL3DoHxPURY9i-29" value="" style="sketch=0;pointerEvents=1;shadow=0;dashed=0;html=1;strokeColor=none;labelPosition=center;verticalLabelPosition=bottom;verticalAlign=top;outlineConnect=0;align=center;shape=mxgraph.office.security.lock_protected;fillColor=#7FBA42;fontSize=13;opacity=80;" vertex="1" parent="x9HyxU4pL3DoHxPURY9i-28">
          <mxGeometry x="4.77" y="38" width="15.23" height="22" as="geometry" />
        </mxCell>
        <mxCell id="x9HyxU4pL3DoHxPURY9i-32" value="&lt;span style=&quot;font-size: 13px;&quot;&gt;Межсетевой экран &lt;br&gt;и криптошлюз&lt;/span&gt;" style="text;html=1;resizable=0;autosize=1;align=center;verticalAlign=middle;points=[];fillColor=none;strokeColor=none;rounded=0;fontSize=15;opacity=80;" vertex="1" parent="1">
          <mxGeometry x="537" y="160" width="130" height="40" as="geometry" />
        </mxCell>
        <mxCell id="x9HyxU4pL3DoHxPURY9i-33" value="" style="group" vertex="1" connectable="0" parent="1">
          <mxGeometry x="310" y="300" width="84.53999999999996" height="60" as="geometry" />
        </mxCell>
        <mxCell id="x9HyxU4pL3DoHxPURY9i-34" value="" style="points=[];aspect=fixed;html=1;align=center;shadow=0;dashed=0;image;image=img/lib/allied_telesis/security/Router_VPN.svg;opacity=80;" vertex="1" parent="x9HyxU4pL3DoHxPURY9i-33">
          <mxGeometry width="84.54" height="60" as="geometry" />
        </mxCell>
        <mxCell id="x9HyxU4pL3DoHxPURY9i-36" value="" style="sketch=0;pointerEvents=1;shadow=0;dashed=0;html=1;strokeColor=none;labelPosition=center;verticalLabelPosition=bottom;verticalAlign=top;outlineConnect=0;align=center;shape=mxgraph.office.security.lock_protected;fillColor=#7FBA42;fontSize=13;opacity=80;" vertex="1" parent="x9HyxU4pL3DoHxPURY9i-33">
          <mxGeometry x="4.77" y="38" width="15.23" height="22" as="geometry" />
        </mxCell>
        <mxCell id="x9HyxU4pL3DoHxPURY9i-39" value="" style="group" vertex="1" connectable="0" parent="1">
          <mxGeometry x="60" y="173" width="106.23" height="77" as="geometry" />
        </mxCell>
        <mxCell id="x9HyxU4pL3DoHxPURY9i-37" value="" style="verticalLabelPosition=bottom;sketch=0;aspect=fixed;html=1;verticalAlign=top;strokeColor=none;align=center;outlineConnect=0;shape=mxgraph.citrix.laptop_1;" vertex="1" parent="x9HyxU4pL3DoHxPURY9i-39">
          <mxGeometry width="91" height="77" as="geometry" />
        </mxCell>
        <mxCell id="x9HyxU4pL3DoHxPURY9i-38" value="" style="sketch=0;pointerEvents=1;shadow=0;dashed=0;html=1;strokeColor=none;fillColor=#505050;labelPosition=center;verticalLabelPosition=bottom;verticalAlign=top;outlineConnect=0;align=center;shape=mxgraph.office.users.user_services;fontSize=13;opacity=80;" vertex="1" parent="x9HyxU4pL3DoHxPURY9i-39">
          <mxGeometry x="10" y="17" width="30" height="29" as="geometry" />
        </mxCell>
        <mxCell id="x9HyxU4pL3DoHxPURY9i-45" value="" style="sketch=0;pointerEvents=1;shadow=0;dashed=0;html=1;strokeColor=none;labelPosition=center;verticalLabelPosition=bottom;verticalAlign=top;outlineConnect=0;align=center;shape=mxgraph.office.security.lock_protected;fillColor=#7FBA42;fontSize=13;opacity=80;" vertex="1" parent="x9HyxU4pL3DoHxPURY9i-39">
          <mxGeometry x="91" y="55" width="15.23" height="22" as="geometry" />
        </mxCell>
        <mxCell id="x9HyxU4pL3DoHxPURY9i-47" style="edgeStyle=orthogonalEdgeStyle;rounded=0;orthogonalLoop=1;jettySize=auto;html=1;fontSize=13;endArrow=none;endFill=0;" edge="1" parent="1" source="x9HyxU4pL3DoHxPURY9i-40">
          <mxGeometry relative="1" as="geometry">
            <mxPoint x="300" y="337" as="targetPoint" />
          </mxGeometry>
        </mxCell>
        <mxCell id="x9HyxU4pL3DoHxPURY9i-40" value="" style="sketch=0;shadow=0;dashed=0;html=1;strokeColor=none;fillColor=#505050;labelPosition=center;verticalLabelPosition=bottom;verticalAlign=top;outlineConnect=0;align=center;shape=mxgraph.office.databases.database_mini_1;fontSize=15;opacity=80;" vertex="1" parent="1">
          <mxGeometry x="200" y="314" width="56" height="46" as="geometry" />
        </mxCell>
        <mxCell id="x9HyxU4pL3DoHxPURY9i-46" value="" style="edgeStyle=orthogonalEdgeStyle;rounded=0;orthogonalLoop=1;jettySize=auto;html=1;fontSize=13;endArrow=none;endFill=0;" edge="1" parent="1" source="x9HyxU4pL3DoHxPURY9i-37" target="x9HyxU4pL3DoHxPURY9i-7">
          <mxGeometry relative="1" as="geometry">
            <mxPoint x="340" y="60" as="targetPoint" />
            <Array as="points">
              <mxPoint x="250" y="212" />
              <mxPoint x="250" y="40" />
            </Array>
          </mxGeometry>
        </mxCell>
        <mxCell id="x9HyxU4pL3DoHxPURY9i-48" style="edgeStyle=orthogonalEdgeStyle;rounded=0;orthogonalLoop=1;jettySize=auto;html=1;fontSize=13;endArrow=none;endFill=0;" edge="1" parent="1" source="x9HyxU4pL3DoHxPURY9i-34" target="x9HyxU4pL3DoHxPURY9i-7">
          <mxGeometry relative="1" as="geometry" />
        </mxCell>
        <mxCell id="x9HyxU4pL3DoHxPURY9i-50" value="&lt;font style=&quot;font-size: 14px;&quot;&gt;&lt;b&gt;АРМ администратора ИСПДн&lt;/b&gt;&lt;/font&gt;" style="text;html=1;resizable=0;autosize=1;align=center;verticalAlign=middle;points=[];fillColor=none;strokeColor=none;rounded=0;fontSize=15;opacity=80;" vertex="1" parent="1">
          <mxGeometry x="-10" y="143" width="220" height="20" as="geometry" />
        </mxCell>
        <mxCell id="x9HyxU4pL3DoHxPURY9i-51" value="&lt;span style=&quot;font-size: 13px;&quot;&gt;Программный VPN-клиент&lt;/span&gt;" style="text;html=1;resizable=0;autosize=1;align=center;verticalAlign=middle;points=[];fillColor=none;strokeColor=none;rounded=0;fontSize=15;opacity=80;" vertex="1" parent="1">
          <mxGeometry x="23.120000000000005" y="250" width="180" height="20" as="geometry" />
        </mxCell>
        <mxCell id="x9HyxU4pL3DoHxPURY9i-52" value="&lt;span style=&quot;font-size: 13px;&quot;&gt;Криптошлюз&lt;/span&gt;" style="text;html=1;resizable=0;autosize=1;align=center;verticalAlign=middle;points=[];fillColor=none;strokeColor=none;rounded=0;fontSize=15;opacity=80;" vertex="1" parent="1">
          <mxGeometry x="310" y="360" width="90" height="20" as="geometry" />
        </mxCell>
        <mxCell id="x9HyxU4pL3DoHxPURY9i-53" value="&lt;span style=&quot;font-size: 13px;&quot;&gt;Маршрутизатор&lt;br&gt;&lt;/span&gt;" style="text;html=1;resizable=0;autosize=1;align=center;verticalAlign=middle;points=[];fillColor=none;strokeColor=none;rounded=0;fontSize=15;opacity=80;" vertex="1" parent="1">
          <mxGeometry x="460.27" y="-20" width="110" height="20" as="geometry" />
        </mxCell>
        <mxCell id="x9HyxU4pL3DoHxPURY9i-54" value="&lt;span style=&quot;font-size: 13px;&quot;&gt;Маршрутизатор&lt;br&gt;&lt;/span&gt;" style="text;html=1;resizable=0;autosize=1;align=center;verticalAlign=middle;points=[];fillColor=none;strokeColor=none;rounded=0;fontSize=15;opacity=80;" vertex="1" parent="1">
          <mxGeometry x="173" y="290" width="110" height="20" as="geometry" />
        </mxCell>
        <mxCell id="x9HyxU4pL3DoHxPURY9i-63" style="edgeStyle=none;rounded=0;orthogonalLoop=1;jettySize=auto;html=1;fontSize=14;endArrow=none;endFill=0;" edge="1" parent="1" source="x9HyxU4pL3DoHxPURY9i-61" target="x9HyxU4pL3DoHxPURY9i-40">
          <mxGeometry relative="1" as="geometry" />
        </mxCell>
        <mxCell id="x9HyxU4pL3DoHxPURY9i-64" style="edgeStyle=none;rounded=0;orthogonalLoop=1;jettySize=auto;html=1;fontSize=14;endArrow=none;endFill=0;" edge="1" parent="1" source="x9HyxU4pL3DoHxPURY9i-61">
          <mxGeometry relative="1" as="geometry">
            <mxPoint x="107.36363636363626" y="320.1953543776058" as="targetPoint" />
          </mxGeometry>
        </mxCell>
        <mxCell id="x9HyxU4pL3DoHxPURY9i-73" style="edgeStyle=none;rounded=0;orthogonalLoop=1;jettySize=auto;html=1;fontSize=14;endArrow=none;endFill=0;" edge="1" parent="1" source="x9HyxU4pL3DoHxPURY9i-61" target="x9HyxU4pL3DoHxPURY9i-66">
          <mxGeometry relative="1" as="geometry" />
        </mxCell>
        <mxCell id="x9HyxU4pL3DoHxPURY9i-61" value="" style="sketch=0;shadow=0;dashed=0;html=1;strokeColor=none;labelPosition=center;verticalLabelPosition=bottom;verticalAlign=top;outlineConnect=0;align=center;shape=mxgraph.office.databases.database;fillColor=#2072B8;fontSize=14;opacity=80;" vertex="1" parent="1">
          <mxGeometry x="139" y="280" width="22" height="110" as="geometry" />
        </mxCell>
        <mxCell id="x9HyxU4pL3DoHxPURY9i-69" value="" style="group" vertex="1" connectable="0" parent="1">
          <mxGeometry x="40" y="350" width="67.36363636363636" height="57" as="geometry" />
        </mxCell>
        <mxCell id="x9HyxU4pL3DoHxPURY9i-66" value="" style="verticalLabelPosition=bottom;sketch=0;aspect=fixed;html=1;verticalAlign=top;strokeColor=none;align=center;outlineConnect=0;shape=mxgraph.citrix.laptop_1;" vertex="1" parent="x9HyxU4pL3DoHxPURY9i-69">
          <mxGeometry width="67.36363636363636" height="57" as="geometry" />
        </mxCell>
        <mxCell id="x9HyxU4pL3DoHxPURY9i-67" value="" style="sketch=0;pointerEvents=1;shadow=0;dashed=0;html=1;strokeColor=none;fillColor=#505050;labelPosition=center;verticalLabelPosition=bottom;verticalAlign=top;outlineConnect=0;align=center;shape=mxgraph.office.users.user_services;fontSize=13;opacity=80;" vertex="1" parent="x9HyxU4pL3DoHxPURY9i-69">
          <mxGeometry x="7.530829332580254" y="13.246753246753258" width="22.59248799774075" height="22.597402597402596" as="geometry" />
        </mxCell>
        <mxCell id="x9HyxU4pL3DoHxPURY9i-70" value="" style="group" vertex="1" connectable="0" parent="1">
          <mxGeometry x="40" y="290" width="67.36363636363636" height="57" as="geometry" />
        </mxCell>
        <mxCell id="x9HyxU4pL3DoHxPURY9i-71" value="" style="verticalLabelPosition=bottom;sketch=0;aspect=fixed;html=1;verticalAlign=top;strokeColor=none;align=center;outlineConnect=0;shape=mxgraph.citrix.laptop_1;" vertex="1" parent="x9HyxU4pL3DoHxPURY9i-70">
          <mxGeometry width="67.36363636363636" height="57" as="geometry" />
        </mxCell>
        <mxCell id="x9HyxU4pL3DoHxPURY9i-72" value="" style="sketch=0;pointerEvents=1;shadow=0;dashed=0;html=1;strokeColor=none;fillColor=#505050;labelPosition=center;verticalLabelPosition=bottom;verticalAlign=top;outlineConnect=0;align=center;shape=mxgraph.office.users.user_services;fontSize=13;opacity=80;" vertex="1" parent="x9HyxU4pL3DoHxPURY9i-70">
          <mxGeometry x="7.530829332580254" y="13.246753246753258" width="22.59248799774075" height="22.597402597402596" as="geometry" />
        </mxCell>
        <mxCell id="x9HyxU4pL3DoHxPURY9i-74" value="&lt;font style=&quot;font-size: 14px;&quot;&gt;&lt;b&gt;АРМ администраторов &lt;br&gt;ИСПДн в офисе&lt;/b&gt;&lt;/font&gt;" style="text;html=1;resizable=0;autosize=1;align=center;verticalAlign=middle;points=[];fillColor=none;strokeColor=none;rounded=0;fontSize=15;opacity=80;" vertex="1" parent="1">
          <mxGeometry x="-130" y="330" width="170" height="40" as="geometry" />
        </mxCell>
        <mxCell id="x9HyxU4pL3DoHxPURY9i-75" value="&lt;span style=&quot;font-size: 13px;&quot;&gt;Доверенная &lt;br&gt;локальная подсеть&lt;/span&gt;" style="text;html=1;resizable=0;autosize=1;align=center;verticalAlign=middle;points=[];fillColor=none;strokeColor=none;rounded=0;fontSize=15;opacity=80;" vertex="1" parent="1">
          <mxGeometry x="85" y="391" width="130" height="40" as="geometry" />
        </mxCell>
        <mxCell id="x9HyxU4pL3DoHxPURY9i-80" style="edgeStyle=none;rounded=0;orthogonalLoop=1;jettySize=auto;html=1;fontSize=14;endArrow=none;endFill=0;" edge="1" parent="1" source="x9HyxU4pL3DoHxPURY9i-77">
          <mxGeometry relative="1" as="geometry">
            <mxPoint x="510" y="525" as="targetPoint" />
          </mxGeometry>
        </mxCell>
        <mxCell id="x9HyxU4pL3DoHxPURY9i-77" value="" style="verticalLabelPosition=bottom;sketch=0;aspect=fixed;html=1;verticalAlign=top;strokeColor=none;align=center;outlineConnect=0;shape=mxgraph.citrix.database_server;fontSize=14;opacity=80;" vertex="1" parent="1">
          <mxGeometry x="550" y="490" width="62.22" height="70" as="geometry" />
        </mxCell>
        <mxCell id="x9HyxU4pL3DoHxPURY9i-82" style="edgeStyle=none;rounded=0;orthogonalLoop=1;jettySize=auto;html=1;fontSize=14;endArrow=none;endFill=0;" edge="1" parent="1" source="x9HyxU4pL3DoHxPURY9i-78">
          <mxGeometry relative="1" as="geometry">
            <mxPoint x="510" y="429" as="targetPoint" />
          </mxGeometry>
        </mxCell>
        <mxCell id="x9HyxU4pL3DoHxPURY9i-78" value="" style="verticalLabelPosition=bottom;sketch=0;aspect=fixed;html=1;verticalAlign=top;strokeColor=none;align=center;outlineConnect=0;shape=mxgraph.citrix.desktop_web;fontSize=14;opacity=80;" vertex="1" parent="1">
          <mxGeometry x="550" y="391" width="64.6" height="76" as="geometry" />
        </mxCell>
        <mxCell id="x9HyxU4pL3DoHxPURY9i-79" value="" style="sketch=0;shadow=0;dashed=0;html=1;strokeColor=none;labelPosition=center;verticalLabelPosition=bottom;verticalAlign=top;outlineConnect=0;align=center;shape=mxgraph.office.databases.database;fillColor=#2072B8;fontSize=14;opacity=80;" vertex="1" parent="1">
          <mxGeometry x="480" y="370" width="22" height="200" as="geometry" />
        </mxCell>
        <mxCell id="x9HyxU4pL3DoHxPURY9i-85" value="" style="group" vertex="1" connectable="0" parent="1">
          <mxGeometry x="610" y="370" width="270" height="110" as="geometry" />
        </mxCell>
        <mxCell id="x9HyxU4pL3DoHxPURY9i-83" value="&lt;span style=&quot;font-size: 14px;&quot;&gt;&lt;b&gt;&amp;nbsp;Веб-сервер&lt;/b&gt;&lt;/span&gt;" style="text;html=1;resizable=0;autosize=1;align=center;verticalAlign=middle;points=[];fillColor=none;strokeColor=none;rounded=0;fontSize=15;opacity=80;" vertex="1" parent="x9HyxU4pL3DoHxPURY9i-85">
          <mxGeometry x="52.39999999999998" y="4" width="100" height="20" as="geometry" />
        </mxCell>
        <mxCell id="x9HyxU4pL3DoHxPURY9i-84" value="&lt;ul style=&quot;font-size: 14px;&quot;&gt;&lt;li&gt;Гипервизор: VMware ESXi;&lt;/li&gt;&lt;li&gt;ОС: Linux;&lt;/li&gt;&lt;li&gt;СЗИ от НСД;&lt;/li&gt;&lt;li&gt;Средства антивирусной защиты.&lt;/li&gt;&lt;/ul&gt;" style="text;html=1;resizable=0;autosize=1;align=left;verticalAlign=middle;points=[];fillColor=none;strokeColor=none;rounded=0;fontSize=15;opacity=80;" vertex="1" parent="x9HyxU4pL3DoHxPURY9i-85">
          <mxGeometry width="270" height="110" as="geometry" />
        </mxCell>
        <mxCell id="x9HyxU4pL3DoHxPURY9i-87" value="&lt;span style=&quot;font-size: 14px;&quot;&gt;&lt;b&gt;Сервер-СУБД&lt;br&gt;&lt;/b&gt;&lt;/span&gt;" style="text;html=1;resizable=0;autosize=1;align=center;verticalAlign=middle;points=[];fillColor=none;strokeColor=none;rounded=0;fontSize=15;opacity=80;" vertex="1" parent="1">
          <mxGeometry x="657.4" y="474" width="110" height="20" as="geometry" />
        </mxCell>
        <mxCell id="x9HyxU4pL3DoHxPURY9i-88" value="&lt;ul style=&quot;font-size: 14px;&quot;&gt;&lt;li&gt;Гипервизор: VMware ESXi;&lt;/li&gt;&lt;li&gt;ОС: Linux;&lt;/li&gt;&lt;li&gt;СЗИ от НСД;&lt;/li&gt;&lt;li&gt;Средства антивирусной защиты.&lt;/li&gt;&lt;/ul&gt;" style="text;html=1;resizable=0;autosize=1;align=left;verticalAlign=middle;points=[];fillColor=none;strokeColor=none;rounded=0;fontSize=15;opacity=80;" vertex="1" parent="1">
          <mxGeometry x="610" y="470" width="270" height="110" as="geometry" />
        </mxCell>
        <mxCell id="x9HyxU4pL3DoHxPURY9i-89" value="" style="sketch=0;shadow=0;dashed=0;html=1;strokeColor=none;labelPosition=center;verticalLabelPosition=bottom;verticalAlign=top;outlineConnect=0;align=center;shape=mxgraph.office.databases.database;fillColor=#2072B8;fontSize=14;opacity=80;rotation=-180;" vertex="1" parent="1">
          <mxGeometry x="480" y="370" width="22" height="200" as="geometry" />
        </mxCell>
        <mxCell id="x9HyxU4pL3DoHxPURY9i-90" value="&lt;span style=&quot;font-size: 13px;&quot;&gt;Изолированная &lt;br&gt;виртуальная сеть&lt;/span&gt;" style="text;html=1;resizable=0;autosize=1;align=center;verticalAlign=middle;points=[];fillColor=none;strokeColor=none;rounded=0;fontSize=15;opacity=80;" vertex="1" parent="1">
          <mxGeometry x="431" y="570" width="120" height="40" as="geometry" />
        </mxCell>
      </root>
    </mxGraphModel>
  </diagram>
</mxfile>
